<svg id="Capa_1" data-name="Capa 1" xmlns="http://www.w3.org/2000/svg" viewBox="0 0 425.19685 425.00946"><defs><style>.cls-1{fill:#2c2c2c;}</style></defs><title>icopaq_alojamiento_black</title><path class="cls-1" d="M417.43252,411.82629H390.00046V376.92013a41.14812,41.14812,0,1,0-13.716,0v34.90616h-41.148V130.64768h6.858a6.858,6.858,0,0,0,0-13.716H280.27229v-20.574a6.858,6.858,0,0,0-6.858-6.858H149.97a6.858,6.858,0,0,0-6.858,6.858v20.574H81.38987a6.858,6.858,0,1,0,0,13.716h6.858V411.82629H47.09979V376.92013a41.1481,41.1481,0,1,0-13.716,0v34.90616H5.95177a6.858,6.858,0,0,0-6.85808,6.858v.00007a6.858,6.858,0,0,0,6.85808,6.858H417.43252a6.858,6.858,0,0,0,6.858-6.858v-.00007A6.858,6.858,0,0,0,417.43252,411.82629ZM40.24185,333.549l-4.01879-4.01886a6.857,6.857,0,0,0-9.69724,9.69731l6.858,6.858v16.761a27.42531,27.42531,0,1,1,13.716,0v-16.761l6.858-6.858a6.857,6.857,0,0,0-.00007-9.69724v-.00007a6.857,6.857,0,0,0-9.69725.00007ZM156.828,103.21562H266.55626v13.716H156.828ZM191.1181,411.82629h-20.574V370.6782h20.574Zm61.72213,0h-20.574V370.6782h20.574Zm27.43206,0h-13.716V363.82018a6.85469,6.85469,0,0,0-6.858-6.858H225.40817a6.85469,6.85469,0,0,0-6.858,6.858v48.00611h-13.716V363.82018a6.85469,6.85469,0,0,0-6.858-6.858H163.686a6.85469,6.85469,0,0,0-6.858,6.858v48.00611H143.112V343.24614H280.27229Zm41.14809,0H293.98832V343.24614h6.85809a6.858,6.858,0,0,0,0-13.716H122.538a6.858,6.858,0,0,0,0,13.716h6.858v68.58015H101.96391V130.64768H321.42038Zm61.7222-78.27732-4.01885-4.01886a6.857,6.857,0,0,0-9.69718,0l-.00007.00007a6.857,6.857,0,0,0,0,9.69717l6.85809,6.85809v16.761a27.4253,27.4253,0,1,1,13.716,0v-16.761l6.858-6.85809a6.857,6.857,0,0,0-9.69724-9.69724Z" transform="translate(0.90631 -0.53293)"/><path class="cls-1" d="M259.59542,33.46164a6.84254,6.84254,0,0,0-5.0944-5.47838l-24.8603-6.21563L217.398,3.39957c-2.54427-3.82219-8.86741-3.82219-11.41175,0l-12.2427,18.36806-24.8603,6.21563a6.85535,6.85535,0,0,0-2.13852,12.35816L183.3,51.37477l-5.683,22.74347a6.85046,6.85046,0,0,0,9.71552,7.79076l24.35968-12.17531,24.36422,12.17984a6.8522,6.8522,0,0,0,9.72013-7.79068L240.0935,51.38279,256.64415,40.346A6.86475,6.86475,0,0,0,259.59542,33.46164ZM228.73435,47.17425l5.68076,22.723-22.7229-11.36144-22.723,11.36144,5.68076-22.723L177.6078,35.8128l22.723-5.68076,11.36144-17.0422L223.05359,30.132l22.723,5.68076Z" transform="translate(0.90631 -0.53293)"/><path class="cls-1" d="M149.97,144.36373H122.538a6.85469,6.85469,0,0,0-6.858,6.858V178.6538a6.85466,6.85466,0,0,0,6.858,6.858H149.97a6.85461,6.85461,0,0,0,6.858-6.858V151.22174A6.85465,6.85465,0,0,0,149.97,144.36373Zm-6.858,27.43206H129.396v-13.716h13.716Z" transform="translate(0.90631 -0.53293)"/><path class="cls-1" d="M225.40821,144.36373H197.97615a6.85469,6.85469,0,0,0-6.858,6.858V178.6538a6.85466,6.85466,0,0,0,6.858,6.858h27.43206a6.85465,6.85465,0,0,0,6.858-6.858V151.22174A6.85469,6.85469,0,0,0,225.40821,144.36373Zm-6.858,27.43206h-13.716v-13.716h13.716Z" transform="translate(0.90631 -0.53293)"/><path class="cls-1" d="M300.84637,144.36373H273.41431a6.8547,6.8547,0,0,0-6.858,6.858V178.6538a6.85466,6.85466,0,0,0,6.858,6.858h27.43206a6.85465,6.85465,0,0,0,6.858-6.858V151.22174A6.85469,6.85469,0,0,0,300.84637,144.36373Zm-6.858,27.43206h-13.716v-13.716h13.716Z" transform="translate(0.90631 -0.53293)"/><path class="cls-1" d="M149.97,199.22785H122.538a6.85471,6.85471,0,0,0-6.858,6.85808v27.432a6.85466,6.85466,0,0,0,6.858,6.858H149.97a6.85461,6.85461,0,0,0,6.858-6.858v-27.432A6.85466,6.85466,0,0,0,149.97,199.22785Zm-6.858,27.43206H129.396V212.944h13.716Z" transform="translate(0.90631 -0.53293)"/><path class="cls-1" d="M225.40821,199.22785H197.97615a6.85471,6.85471,0,0,0-6.858,6.85808v27.432a6.85466,6.85466,0,0,0,6.858,6.858h27.43206a6.85465,6.85465,0,0,0,6.858-6.858v-27.432A6.8547,6.8547,0,0,0,225.40821,199.22785Zm-6.858,27.43206h-13.716V212.944h13.716Z" transform="translate(0.90631 -0.53293)"/><path class="cls-1" d="M300.84637,199.22785H273.41431a6.85471,6.85471,0,0,0-6.858,6.85808v27.432a6.85466,6.85466,0,0,0,6.858,6.858h27.43206a6.85465,6.85465,0,0,0,6.858-6.858v-27.432A6.8547,6.8547,0,0,0,300.84637,199.22785Zm-6.858,27.43206h-13.716V212.944h13.716Z" transform="translate(0.90631 -0.53293)"/><path class="cls-1" d="M149.97,254.092H122.538A6.85472,6.85472,0,0,0,115.68,260.95v27.432a6.85465,6.85465,0,0,0,6.858,6.858H149.97a6.8546,6.8546,0,0,0,6.858-6.858V260.95A6.85467,6.85467,0,0,0,149.97,254.092ZM143.112,281.524H129.396v-13.716h13.716Z" transform="translate(0.90631 -0.53293)"/><path class="cls-1" d="M225.40821,254.092H197.97615a6.85472,6.85472,0,0,0-6.858,6.85809v27.432a6.85465,6.85465,0,0,0,6.858,6.858h27.43206a6.85464,6.85464,0,0,0,6.858-6.858V260.95A6.85471,6.85471,0,0,0,225.40821,254.092Zm-6.858,27.43206h-13.716v-13.716h13.716Z" transform="translate(0.90631 -0.53293)"/><path class="cls-1" d="M300.84637,254.092H273.41431a6.85472,6.85472,0,0,0-6.858,6.85809v27.432a6.85465,6.85465,0,0,0,6.858,6.858h27.43206a6.85464,6.85464,0,0,0,6.858-6.858V260.95A6.85471,6.85471,0,0,0,300.84637,254.092Zm-6.858,27.43206h-13.716v-13.716h13.716Z" transform="translate(0.90631 -0.53293)"/></svg>