<svg id="Capa_1" data-name="Capa 1" xmlns="http://www.w3.org/2000/svg" viewBox="0 0 409.60179 310.39801"><defs><style>.cls-1{fill:#2c2c2c;}.cls-2{fill:#bcd022;}</style></defs><title>icopaq_excursiones_color</title><path class="cls-1" d="M500.63818,352.0354c-.19506-.234-7.781-9.375-20.024-24.391a8.05667,8.05667,0,0,0,.184-1.699v-52a8,8,0,0,0-16,0v34.207c-19.098-23.636-43.777-54.574-68.867-87.093-35.488-45.993-62.207-83.723-77.359-105.715,14.48005,3.929,35.332,8.21106,57.441,8.21106a152.94271,152.94271,0,0,0,20.25006-1.301c30.437-4.094,54.58594-20.16,68.535-31.766v90.66a8,8,0,1,0,16,0V62.7464a8,8,0,0,0-16,0v5.965c-5.949,6.16-33.453,32.68-70.668,37.683-42.801,5.758-88.898-12.039-89.598-12.312-.164-.066-.324-.113-.488-.164a7.98631,7.98631,0,0,0-6.348-3.172h-.011a7.99821,7.99821,0,0,0-6.688,3.609c-.453.696-46.07,70.028-94.863,131.41394-23.082,29.03607-44.547,55.81708-61.738,77.176V89.9494c10.211,8.379,25.558,18.863,44.648,25.543a8.00077,8.00077,0,0,0,5.281-15.105c-25.57807-8.946-44.05805-26.098-49.929-32.036v-5.605a8,8,0,1,0-16,0v260.051c-14.594,18.082-23.52,29.054-23.719,29.301a7.99981,7.99981,0,0,0,6.207,13.046h393.602a7.99727,7.99727,0,0,0,6.152-13.109Zm-247.051-2.891,44.113-107.007,44.114,107.007Zm70.426-85.152,40.992,48.758-11.355,23.133Zm40.949,85.152,16.641-33.894a8.10467,8.10467,0,0,0-1.086-8.91394l-75.906-90.28907a7.95933,7.95933,0,0,0-6.024-2.84393,7.42974,7.42974,0,0,0-.887-.059,7.99573,7.99573,0,0,0-7.394,4.954l-54.024,131.046h-118.609l90.984-113.421c38.231-48.094,74.497-100.977,89.036-122.57495,12.695,18.762,42.843,62.305,85.57,117.684,38.652,50.098,76.355,96.477,94.26593,118.312Z" transform="translate(-92.88356 -54.7464)"/><polygon class="cls-2" points="231.13 209.246 272.122 258.004 260.767 281.137 231.13 209.246"/><path class="cls-2" d="M364.96218,349.14441l16.641-33.894a8.10472,8.10472,0,0,0-1.086-8.914l-75.906-90.289a7.95937,7.95937,0,0,0-6.024-2.844,7.43642,7.43642,0,0,0-.887-.059,7.99577,7.99577,0,0,0-7.394,4.954l-54.024,131.046h-118.609l90.984-113.421c38.231-48.094,74.497-100.977,89.036-122.575,12.695,18.762,42.843,62.305,85.57,117.684,38.652,50.098,76.355,96.477,94.266,118.312Z" transform="translate(-92.88356 -54.7464)"/><path class="cls-1" d="M297.59917,161.94541a7.9978,7.9978,0,0,0-8,8v26.403a8,8,0,1,0,16,0v-26.403a8.00035,8.00035,0,0,0-8-8Zm0,0" transform="translate(-92.88356 -54.7464)"/><path class="cls-1" d="M297.59917,134.74642a7.9978,7.9978,0,0,0-8,8v2.398a8,8,0,1,0,16,0v-2.398a8.00035,8.00035,0,0,0-8-8Zm0,0" transform="translate(-92.88356 -54.7464)"/><path class="cls-1" d="M253.78215,211.69141a7.99808,7.99808,0,0,0-11.242,1.27l-17.218,21.598a8.001,8.001,0,1,0,12.515,9.972l17.215-21.597a7.99877,7.99877,0,0,0-1.27-11.243Zm0,0" transform="translate(-92.88356 -54.7464)"/><path class="cls-1" d="M216.79818,258.0904a8.00161,8.00161,0,0,0-11.242,1.269l-51.016,64a8.00016,8.00016,0,1,0,12.512,9.973l51.016-64a8.00173,8.00173,0,0,0-1.27-11.242Zm0,0" transform="translate(-92.88356 -54.7464)"/><path class="cls-1" d="M472.79818,207.54741a8.00036,8.00036,0,0,0-8,8v27.199a8,8,0,1,0,16,0v-27.199a8.00033,8.00033,0,0,0-8-8Zm0,0" transform="translate(-92.88356 -54.7464)"/><path class="cls-1" d="M222.48618,122.37142h.011a213.94249,213.94249,0,0,0,45.719-5.379,7.9999,7.9999,0,1,0-3.461-15.621,198.07277,198.07277,0,0,1-42.277,5,8,8,0,0,0,.008,16Zm0,0" transform="translate(-92.88356 -54.7464)"/></svg>