<svg id="Capa_1" data-name="Capa 1" xmlns="http://www.w3.org/2000/svg" viewBox="0 0 408.40198 267.836"><defs><style>.cls-1{fill:#2c2c2c;}.cls-2{fill:#bcd022;}</style></defs><title>icopaq_renta_color</title><path class="cls-1" d="M493.88971,204.48035h-13.152l-27.5-54.274c-.062-.125-.129-.25-.203-.375a54.86781,54.86781,0,0,0-15.938-17.472,8.01968,8.01968,0,0,0,.325-2.242v-20.024a33.8242,33.8242,0,0,0-33.786-33.785h-41a175.49845,175.49845,0,0,0-66.996,13.223l-41.84,17.191a16.14294,16.14294,0,0,0-9.804,18.242,16.89388,16.89388,0,0,0,1.121,3.524,87.36362,87.36362,0,0,0-24.156,12.043c-18.539,13.437-28.336,33.691-28.336,58.574v5.37494h-43.297a55.9264,55.9264,0,0,0-52.684,37.363,7.89053,7.89053,0,0,0-1.136,3.629,55.58539,55.58539,0,0,0-2.02,14.844v37.144a8.00036,8.00036,0,0,0,8,8h35.434a47.06887,47.06887,0,0,0,92.632,0h137.067a47.06945,47.06945,0,0,0,92.633,0h34.636a8.0003,8.0003,0,0,0,7.99994-8v-84.98A8.00036,8.00036,0,0,0,493.88971,204.48035ZM214.31165,297.4024a30.57363,30.57363,0,1,1,.00805-.371c-.004.113-.00805.222-.012.34C214.30768,297.37842,214.31165,297.39038,214.31165,297.4024Zm63.91-92.92205h-69.597v-5.37494c0-48.824,43.754-58.856,69.597-60.516Zm16,0v-66.184h107.2v66.184Zm118.719,123.66406a31.10948,31.10948,0,0,1-31.062-30.441c.043,4.125.089,9.062-.012-.305-.051-5.461-.027-3.391.004-.371a31.44287,31.44287,0,0,1,20.398-29.15606,30.67383,30.67383,0,0,1,10.672-1.891,31.082,31.082,0,0,1,0,62.16406Zm4.481-123.66406v-64.285a38.92857,38.92857,0,0,1,21.644,17.441l23.734,46.84394Z" transform="translate(-93.48767 -76.30841)"/><path class="cls-2" d="M259.68268,121.6214a1.18049,1.18049,0,0,1,.2-.102l41.839-17.188a159.51125,159.51125,0,0,1,60.914-12.023h41a17.80366,17.80366,0,0,1,17.786,17.785v12.024h-161.422c-.106,0-.172-.008-.203-.008h-.012a.82086.82086,0,0,1-.102-.488Z" transform="translate(-93.48767 -76.30841)"/><path class="cls-2" d="M485.88967,289.46039h-26.484a47.61554,47.61554,0,0,0-33.805-37.738,46.88562,46.88562,0,0,0-14.96805-1.68,47.53477,47.53477,0,0,0-39.993,26.379,46.785,46.785,0,0,0-4.172,13.039h-136.761a47.14176,47.14176,0,0,0-48.774-39.418c-22.109.926-40.644,17.832-44.164,39.418h-27.281v-12.355h11.539a8,8,0,0,0,0-16h-11.539v-.785a39.95243,39.95243,0,0,1,.512-6.344h11.027a8,8,0,0,0,0-16h-4.668a39.82753,39.82753,0,0,1,32.969-17.496h336.562Z" transform="translate(-93.48767 -76.30841)"/><path class="cls-1" d="M462.38567,228.30842h-35.093a8,8,0,1,0,0,16h35.093a8,8,0,1,0,0-16Zm0,0" transform="translate(-93.48767 -76.30841)"/><path class="cls-1" d="M390.60466,228.30842h-169.082a8,8,0,1,0,0,16h169.082a8,8,0,1,0,0-16Zm0,0" transform="translate(-93.48767 -76.30841)"/><path class="cls-1" d="M198.87069,289.06241a7.88673,7.88673,0,0,0-2.051.277,7.9957,7.9957,0,0,0-5.949,7.723,7.63891,7.63891,0,0,1-7.633,7.633,8,8,0,0,0,0,16,23.66015,23.66015,0,0,0,23.633-23.633,8.00033,8.00033,0,0,0-8-8Zm0,0" transform="translate(-93.48767 -76.30841)"/><path class="cls-1" d="M183.23768,289.42942a8,8,0,1,0,0-16,23.6601,23.6601,0,0,0-23.633,23.633,8,8,0,0,0,16,0,7.644,7.644,0,0,1,7.633-7.633Zm0,0" transform="translate(-93.48767 -76.30841)"/><path class="cls-1" d="M428.56966,289.06241a7.89218,7.89218,0,0,0-2.051.277,7.99571,7.99571,0,0,0-5.949,7.723,7.63891,7.63891,0,0,1-7.633,7.633,7.99372,7.99372,0,0,0-7.722,5.949,7.88873,7.88873,0,0,0-.278,2.051,8.00038,8.00038,0,0,0,8,8,23.66014,23.66014,0,0,0,23.633-23.633,8.00036,8.00036,0,0,0-8-8Zm0,0" transform="translate(-93.48767 -76.30841)"/><path class="cls-1" d="M412.9367,289.42942a7.99967,7.99967,0,0,0,7.727-5.945,8.09233,8.09233,0,0,0,.273-2.055,8.00034,8.00034,0,0,0-8-8,23.66009,23.66009,0,0,0-23.633,23.633,8,8,0,0,0,16,0,7.644,7.644,0,0,1,7.633-7.633Zm0,0" transform="translate(-93.48767 -76.30841)"/><path class="cls-1" d="M315.82369,164.62439h35.094a8,8,0,1,0,0-16h-35.094a8,8,0,0,0,0,16Zm0,0" transform="translate(-93.48767 -76.30841)"/></svg>