<svg id="Capa_1" data-name="Capa 1" xmlns="http://www.w3.org/2000/svg" viewBox="0 0 409.602 271.19902"><defs><style>.cls-1{fill:#bcd022;}.cls-2{fill:#2c2c2c;}</style></defs><title>icopaq_alojamiento_color</title><rect class="cls-1" x="30.46896" y="61.60199" width="363.133" height="193.59702"/><path class="cls-2" d="M198.48967,100.02492a8,8,0,0,0,16,0v-9.398h222.398v9.398a8,8,0,0,0,16,0v-9.398h41.602a8,8,0,0,0,0-16h-393.602a8,8,0,0,0,0,16h97.602Zm0,0" transform="translate(-92.88768 -74.62691)"/><path class="cls-2" d="M142.48967,279.52889a8.00032,8.00032,0,0,0,8-8v-30.504h26.523v30.504a8,8,0,0,0,16,0v-77.004a8,8,0,0,0-16,0v30.5h-26.523v-30.5a8,8,0,0,0-16,0v77.004a7.99778,7.99778,0,0,0,8,8Zm0,0" transform="translate(-92.88768 -74.62691)"/><path class="cls-2" d="M305.11467,202.52491h10.961v69.004a8,8,0,0,0,16,0v-69.004h10.964a8,8,0,0,0,0-16h-37.925a8,8,0,0,0,0,16Zm0,0" transform="translate(-92.88768 -74.62691)"/><path class="cls-2" d="M365.4497,279.52889c.293,0,.579-.019.86395-.047.281.028.57.047.863.047h37.926a8,8,0,1,0,0-16h-31.653v-23.078h31.653a8,8,0,1,0,0-16h-31.653v-21.926h31.653a8,8,0,1,0,0-16h-37.926a7.95735,7.95735,0,0,1-1.727,0,8.001,8.001,0,0,0-8,8v77.004a8.001,8.001,0,0,0,8,8Zm0,0" transform="translate(-92.88768 -74.62691)"/><path class="cls-2" d="M429.23568,279.52889c.293,0,.582-.019.863-.047.285.028.57.047.863.047h37.926a8,8,0,1,0,0-16h-31.652v-69.004a8,8,0,1,0-16,0v77.004a8.00033,8.00033,0,0,0,8,8Zm0,0" transform="translate(-92.88768 -74.62691)"/><path class="cls-2" d="M249.37166,278.95492a45.92751,45.92751,0,1,0-45.925-45.93,45.97977,45.97977,0,0,0,45.925,45.93Zm0-75.855a29.92749,29.92749,0,1,1-29.925,29.925,29.96067,29.96067,0,0,1,29.925-29.925Zm0,0" transform="translate(-92.88768 -74.62691)"/><path class="cls-2" d="M393.68865,304.22893h-250.403a8,8,0,1,0,0,16h250.403a8,8,0,1,0,0-16Zm0,0" transform="translate(-92.88768 -74.62691)"/><path class="cls-2" d="M423.28569,320.2289h42.403a8,8,0,1,0,0-16h-42.403a8,8,0,1,0,0,16Zm0,0" transform="translate(-92.88768 -74.62691)"/><path class="cls-2" d="M494.48969,120.22888h-379.133a8.00036,8.00036,0,0,0-8,8V337.82593a8.00036,8.00036,0,0,0,8,8h379.133a8.0004,8.0004,0,0,0,8-8V128.22888A8.0004,8.0004,0,0,0,494.48969,120.22888Zm-8.00007,209.59705h-363.133V136.22888h363.133Z" transform="translate(-92.88768 -74.62691)"/></svg>