<svg id="Capa_1" data-name="Capa 1" xmlns="http://www.w3.org/2000/svg" viewBox="0 0 425.19685 425.0095"><defs><style>.cls-1{fill:#2c2c2c;}.cls-2{fill:#bad14e;}</style></defs><title>icopaq_alojamiento_color</title><path class="cls-1" d="M390.09636,376.86038a41.1481,41.1481,0,1,0-13.716,0v34.90615h-41.148V130.58792h6.858a6.858,6.858,0,0,0,6.858-6.858v0a6.858,6.858,0,0,0-6.858-6.858H280.3682v-20.574a6.858,6.858,0,0,0-6.858-6.858H150.06591a6.858,6.858,0,0,0-6.858,6.858v20.574H81.48576a6.858,6.858,0,0,0-6.858,6.858v0a6.858,6.858,0,0,0,6.858,6.858h6.858V411.76653H47.19569V376.86038a41.1481,41.1481,0,1,0-13.716,0v34.90615H6.04763a6.858,6.858,0,0,0-6.858,6.858v0a6.858,6.858,0,0,0,6.858,6.858H417.52839a6.858,6.858,0,0,0,6.858-6.858v0a6.858,6.858,0,0,0-6.858-6.858h-27.432ZM143.2079,281.46425h-13.716v-13.716h13.716Zm0-54.86412h-13.716v-13.716h13.716Zm0-54.86412h-13.716V158.02h13.716ZM191.214,411.76653H170.64V370.61844h20.574Zm27.43206-130.30228H204.93v-13.716h13.716Zm0-54.86412H204.93v-13.716h13.716Zm0-54.86412H204.93V158.02h13.716Zm34.29008,240.03052h-20.574V370.61844h20.57405Zm41.14809-130.30228h-13.716v-13.716h13.716Zm0-54.86412h-13.716v-13.716h13.716Zm0-54.86412h-13.716V158.02h13.716Z" transform="translate(0.81041 -0.47313)"/><path class="cls-2" d="M102.05981,130.58792V411.76653h27.43206V343.18638h-6.858a6.858,6.858,0,0,1-6.858-6.858v0a6.858,6.858,0,0,1,6.858-6.858h178.3084a6.858,6.858,0,0,1,6.858,6.858v0a6.858,6.858,0,0,1-6.858,6.858h-6.858v68.58015h27.43205V130.58792ZM143.2079,281.46425h-13.716v-13.716h13.716Zm0-54.86412h-13.716v-13.716h13.716Zm0-54.86412h-13.716V158.02h13.716Zm75.43816,109.72824H204.93v-13.716h13.716Zm0-54.86412H204.93v-13.716h13.716Zm0-54.86412H204.93V158.02h13.716Zm75.43817,109.72824h-13.716v-13.716h13.716Zm0-54.86412h-13.716v-13.716h13.716Zm0-54.86412h-13.716V158.02h13.716Z" transform="translate(0.81041 -0.47313)"/><rect class="cls-2" x="157.73434" y="102.68273" width="109.72824" height="13.71603"/><path class="cls-2" d="M143.2079,411.76653h13.716v-48.0061a6.8547,6.8547,0,0,1,6.858-6.858H198.072a6.8547,6.8547,0,0,1,6.858,6.858v48.0061h13.716v-48.0061a6.8547,6.8547,0,0,1,6.858-6.858h34.29007a6.85471,6.85471,0,0,1,6.858,6.858v48.0061h13.716V343.18638H143.2079Z" transform="translate(0.81041 -0.47313)"/><path class="cls-2" d="M12.90564,336.3284a27.42861,27.42861,0,1,1,34.29007,26.45824v-16.761l6.858-6.858a6.857,6.857,0,0,0,0-9.69725h0a6.857,6.857,0,0,0-9.69724,0l-4.01876,4.01878-4.0188-4.0188a6.857,6.857,0,0,0-9.69723,0h0a6.857,6.857,0,0,0,0,9.69726l6.858,6.858v16.761a27.40064,27.40064,0,0,1-20.574-26.45824Z" transform="translate(0.81041 -0.47313)"/><path class="cls-2" d="M355.80638,336.3284a27.42862,27.42862,0,1,1,34.29007,26.45824v-16.761l6.858-6.858a6.857,6.857,0,0,0,0-9.6972h0a6.857,6.857,0,0,0-9.69723,0l-4.01879,4.01879-4.01883-4.01881a6.857,6.857,0,0,0-9.69722,0h0a6.857,6.857,0,0,0,0,9.69721l6.858,6.858v16.761a27.40069,27.40069,0,0,1-20.574-26.45824Z" transform="translate(0.81041 -0.47313)"/><path class="cls-2" d="M198.072,27.71774l13.716-20.574,13.716,20.57405,27.43206,6.858-20.574,13.716,6.858,27.43206-27.432-13.716L184.356,75.72384l6.858-27.43206-20.574-13.716Zm0,0" transform="translate(0.81041 -0.47313)"/><path class="cls-1" d="M259.6913,33.40188a6.8426,6.8426,0,0,0-5.09438-5.47841l-24.8603-6.21564-12.2427-18.368c-2.54432-3.8222-8.86742-3.8222-11.41174,0l-12.2427,18.36805-24.86031,6.21564a6.85535,6.85535,0,0,0-2.13856,12.35815L183.39587,51.315l-5.683,22.74347a6.85043,6.85043,0,0,0,9.71554,7.79072l24.35967-12.17527,24.36421,12.17984a6.8522,6.8522,0,0,0,9.72013-7.79072l-5.683-22.74,16.55067-11.03684a6.86491,6.86491,0,0,0,2.95125-6.88431Zm-31.1331,9.184a6.84121,6.84121,0,0,0-2.84837,7.36666L228.956,62.91878l-14.10008-7.0409a6.79607,6.79607,0,0,0-3.0678-.72808,6.9075,6.9075,0,0,0-3.06785.71894l-14.10007,7.04547,3.24614-12.97078a6.83733,6.83733,0,0,0-2.84837-7.36209l-7.67069-5.11721,12.39014-3.10325a6.83663,6.83663,0,0,0,4.04511-2.8438l8.00559-12.01066,8.01014,12.01523a6.85718,6.85718,0,0,0,4.0451,2.84837L236.238,37.4687Zm0,0" transform="translate(0.81041 -0.47313)"/><path class="cls-1" d="M150.06591,144.30395H122.63385a6.8547,6.8547,0,0,0-6.858,6.858V178.594a6.85464,6.85464,0,0,0,6.858,6.858h27.43206a6.8546,6.8546,0,0,0,6.858-6.858V151.162A6.85466,6.85466,0,0,0,150.06591,144.30395Zm-6.858,27.43206h-13.716V158.02h13.716Z" transform="translate(0.81041 -0.47313)"/><path class="cls-1" d="M225.50408,144.30395H198.072a6.85471,6.85471,0,0,0-6.858,6.858V178.594a6.85465,6.85465,0,0,0,6.858,6.858h27.43206a6.85464,6.85464,0,0,0,6.858-6.858V151.162A6.8547,6.8547,0,0,0,225.50408,144.30395Zm-6.858,27.43206H204.93V158.02h13.716Z" transform="translate(0.81041 -0.47313)"/><path class="cls-1" d="M300.94224,144.30395H273.51018a6.8547,6.8547,0,0,0-6.858,6.858V178.594a6.85464,6.85464,0,0,0,6.858,6.858h27.43206a6.85464,6.85464,0,0,0,6.858-6.858V151.162A6.8547,6.8547,0,0,0,300.94224,144.30395Zm-6.858,27.43206h-13.716V158.02h13.716Z" transform="translate(0.81041 -0.47313)"/><path class="cls-1" d="M150.06591,199.16807H122.63385a6.85471,6.85471,0,0,0-6.858,6.85809v27.432a6.85464,6.85464,0,0,0,6.858,6.858h27.43206a6.8546,6.8546,0,0,0,6.858-6.858v-27.432A6.85466,6.85466,0,0,0,150.06591,199.16807Zm-6.858,27.43206h-13.716v-13.716h13.716Z" transform="translate(0.81041 -0.47313)"/><path class="cls-1" d="M225.50408,199.16807H198.072a6.85472,6.85472,0,0,0-6.858,6.85809v27.432a6.85465,6.85465,0,0,0,6.858,6.858h27.43206a6.85464,6.85464,0,0,0,6.858-6.858v-27.432A6.85471,6.85471,0,0,0,225.50408,199.16807Zm-6.858,27.43206H204.93v-13.716h13.716Z" transform="translate(0.81041 -0.47313)"/><path class="cls-1" d="M300.94224,199.16807H273.51018a6.85471,6.85471,0,0,0-6.858,6.85809v27.432a6.85464,6.85464,0,0,0,6.858,6.858h27.43206a6.85464,6.85464,0,0,0,6.858-6.858v-27.432A6.85471,6.85471,0,0,0,300.94224,199.16807Zm-6.858,27.43206h-13.716v-13.716h13.716Z" transform="translate(0.81041 -0.47313)"/><path class="cls-1" d="M150.06591,254.03219H122.63385a6.85471,6.85471,0,0,0-6.858,6.85809v27.432a6.85465,6.85465,0,0,0,6.858,6.858h27.43206a6.8546,6.8546,0,0,0,6.858-6.858v-27.432A6.85466,6.85466,0,0,0,150.06591,254.03219Zm-6.858,27.43206h-13.716v-13.716h13.716Z" transform="translate(0.81041 -0.47313)"/><path class="cls-1" d="M225.50408,254.03219H198.072a6.85472,6.85472,0,0,0-6.858,6.85809v27.432a6.85466,6.85466,0,0,0,6.858,6.858h27.43206a6.85465,6.85465,0,0,0,6.858-6.858v-27.432A6.85471,6.85471,0,0,0,225.50408,254.03219Zm-6.858,27.43206H204.93v-13.716h13.716Z" transform="translate(0.81041 -0.47313)"/><path class="cls-1" d="M300.94224,254.03219H273.51018a6.85471,6.85471,0,0,0-6.858,6.85809v27.432a6.85465,6.85465,0,0,0,6.858,6.858h27.43206a6.85465,6.85465,0,0,0,6.858-6.858v-27.432A6.85471,6.85471,0,0,0,300.94224,254.03219Zm-6.858,27.43206h-13.716v-13.716h13.716Z" transform="translate(0.81041 -0.47313)"/></svg>