<svg id="Capa_1" data-name="Capa 1" xmlns="http://www.w3.org/2000/svg" viewBox="0 0 408.40601 254.07404"><defs><style>.cls-1{fill:#2c2c2c;}.cls-2{fill:#bcd022;}</style></defs><title>icopaq_traslado_color</title><path class="cls-1" d="M493.8877,83.18939h-299.882a100.6348,100.6348,0,0,0-100.52,100.519V290.58344a8.0004,8.0004,0,0,0,8,8h35.434a47.06974,47.06974,0,0,0,92.632,0h137.071a47.06792,47.06792,0,0,0,92.629,0h34.64a8.0004,8.0004,0,0,0,8-8V91.18939A8.00378,8.00378,0,0,0,493.8877,83.18939Zm-384.398,100.094a84.63857,84.63857,0,0,1,74.519-83.5v83.5Zm73.746,137.98a31.10819,31.10819,0,0,1-31.035-29.715c.121,13.945-.153-16.469-.01605-2.004.42206-16.605,14.28107-30.44494,31.051-30.44494a31.082,31.082,0,0,1,0,62.164Zm100.52-137.98h-83.747v-84.094h83.747Zm16,0v-84.094h85.242v84.094Zm113.179,137.98a31.08,31.08,0,1,1,31.074-30.738A31.11411,31.11411,0,0,1,412.93469,321.26343Zm72.95294-137.98H400.99768v-84.094h84.89Z" transform="translate(-93.48566 -83.18939)"/><path class="cls-2" d="M136.76668,282.57943h-27.281v-26.668h11.539a8,8,0,0,0,0-16h-11.539v-7.128h11.539a8,8,0,0,0,0-16h-11.539v-17.5h74.523v43.835c-22.847-.371-43.515,16.606-47.242,39.461Z" transform="translate(-93.48566 -83.18939)"/><path class="cls-2" d="M485.88765,282.57943h-26.484c-.121-.656-.246-1.316-.367-1.972a47.59088,47.59088,0,0,0-48.406-37.446c-1.391.067-2.78195.211-4.16494.395a47.72638,47.72638,0,0,0-39.367,35.926c-.238,1.027-.461,2.058-.629,3.101h-136.765q-5.17348-26.115-29.696-36.39v-46.91h285.879Z" transform="translate(-93.48566 -83.18939)"/><path class="cls-1" d="M165.12267,110.69341a78.51158,78.51158,0,0,0-18.641,10.566,8,8,0,0,0,9.707,12.719,62.80119,62.80119,0,0,1,14.852-8.422,7.99893,7.99893,0,0,0-5.918-14.863Zm0,0" transform="translate(-93.48566 -83.18939)"/><path class="cls-1" d="M139.83767,137.93142a8.001,8.001,0,0,0-11.102,2.191,78.17206,78.17206,0,0,0-11.539,27.141,8.00093,8.00093,0,1,0,15.641,3.379,62.32082,62.32082,0,0,1,9.187-21.613,7.99879,7.99879,0,0,0-2.187-11.098Zm0,0" transform="translate(-93.48566 -83.18939)"/><path class="cls-1" d="M427.29067,228.79442h35.093a8,8,0,1,0,0-16h-35.093a8,8,0,0,0,0,16Zm0,0" transform="translate(-93.48566 -83.18939)"/><path class="cls-1" d="M221.52068,228.79442h169.082a8,8,0,1,0,0-16h-169.082a8,8,0,0,0,0,16Zm0,0" transform="translate(-93.48566 -83.18939)"/><path class="cls-1" d="M198.86867,282.18142a8.042,8.042,0,0,0-8,8,7.63889,7.63889,0,0,1-7.633,7.633,8,8,0,0,0,0,16,23.66013,23.66013,0,0,0,23.633-23.633,8.00033,8.00033,0,0,0-8-8Zm0,0" transform="translate(-93.48566 -83.18939)"/><path class="cls-1" d="M183.23566,282.54842a8,8,0,0,0,0-16,23.66013,23.66013,0,0,0-23.633,23.633,8.00038,8.00038,0,0,0,8,8,8.13839,8.13839,0,0,0,2.055-.273,8.00052,8.00052,0,0,0,5.945-7.727,7.644,7.644,0,0,1,7.633-7.633Zm0,0" transform="translate(-93.48566 -83.18939)"/><path class="cls-1" d="M428.56765,282.18142a8.042,8.042,0,0,0-8,8,7.6389,7.6389,0,0,1-7.633,7.633,7.99374,7.99374,0,0,0-7.722,5.949,7.88794,7.88794,0,0,0-.278,2.051,8.00038,8.00038,0,0,0,8,8,23.66012,23.66012,0,0,0,23.633-23.633,8.00036,8.00036,0,0,0-8-8Zm0,0" transform="translate(-93.48566 -83.18939)"/><path class="cls-1" d="M412.93468,282.54842a7.99963,7.99963,0,0,0,7.727-5.945,8.09159,8.09159,0,0,0,.273-2.055,8.00038,8.00038,0,0,0-8-8,23.6567,23.6567,0,0,0-23.629,23.633,7.99782,7.99782,0,0,0,8,8,8.10682,8.10682,0,0,0,2.051-.273,8.00406,8.00406,0,0,0,5.949-7.727,7.64058,7.64058,0,0,1,7.629-7.633Zm0,0" transform="translate(-93.48566 -83.18939)"/><path class="cls-1" d="M270.37265,104.92341h-55.035a8,8,0,0,0,0,16h55.035a8,8,0,0,0,0-16Zm0,0" transform="translate(-93.48566 -83.18939)"/><path class="cls-1" d="M370.86464,104.92341h-55.031a8,8,0,0,0,0,16h55.031a8,8,0,1,0,0-16Zm0,0" transform="translate(-93.48566 -83.18939)"/><path class="cls-1" d="M416.32567,120.92341h55.031a8,8,0,1,0,0-16h-55.031a8,8,0,1,0,0,16Zm0,0" transform="translate(-93.48566 -83.18939)"/><path class="cls-1" d="M154.52466,216.78341h-8.773a8,8,0,1,0,0,16h8.773a8,8,0,1,0,0-16Zm0,0" transform="translate(-93.48566 -83.18939)"/></svg>