<svg id="Capa_1" data-name="Capa 1" xmlns="http://www.w3.org/2000/svg" viewBox="0 0 275.61168 41.34482"><defs><style>.cls-1{fill:#212f3d;}.cls-2{fill:#bcd027;}</style></defs><title>logo_gtt_color</title><path class="cls-1" d="M178.71565,136.74629l3.34119.49641a3.184,3.184,0,0,0,1.16465,2.25292,5.72156,5.72156,0,0,0,3.49393.95462,6.136,6.136,0,0,0,3.68485-.95462,4.69792,4.69792,0,0,0,1.75652-2.673,21.95019,21.95019,0,0,0,.2482-4.41037,7.06864,7.06864,0,0,1-5.6132,2.65386,7.6526,7.6526,0,0,1-6.47237-3.01662,11.61675,11.61675,0,0,1-2.2911-7.23606,13.46769,13.46769,0,0,1,1.05009-5.35545,8.40127,8.40127,0,0,1,3.04526-3.78987,8.22273,8.22273,0,0,1,4.68721-1.33648,7.26876,7.26876,0,0,1,5.91868,2.90207v-2.44385h3.16936v17.52694q0,4.73494-.96417,6.711a7.05192,7.05192,0,0,1-3.05481,3.12163,10.58685,10.58685,0,0,1-5.14543,1.14555,9.703,9.703,0,0,1-5.8614-1.63241A5.52,5.52,0,0,1,178.71565,136.74629Zm2.84479-12.181q0,3.99033,1.58468,5.82321a5.22746,5.22746,0,0,0,7.94248.00955q1.60378-1.82334,1.60378-5.71821a8.31438,8.31438,0,0,0-1.65151-5.6132,5.10681,5.10681,0,0,0-3.98079-1.89016,4.96065,4.96065,0,0,0-3.89487,1.86152A8.26684,8.26684,0,0,0,181.56044,124.56527Z" transform="translate(-178.02832 -101.9502)"/><path class="cls-1" d="M197.85749,124.928q0-5.63229,3.13118-8.34343a9.435,9.435,0,0,1,6.3769-2.25292,9.09713,9.09713,0,0,1,6.83512,2.73978,10.4234,10.4234,0,0,1,2.65386,7.57019,13.41351,13.41351,0,0,1-1.17419,6.15733,8.31192,8.31192,0,0,1-3.41756,3.48439,9.94994,9.94994,0,0,1-4.89723,1.241,9.11414,9.11414,0,0,1-6.88285-2.73023Q197.8575,130.06391,197.85749,124.928Zm3.53212,0q0,3.89488,1.69924,5.83277a5.65786,5.65786,0,0,0,8.53435-.00955q1.69925-1.94744,1.69924-5.93777a8.37744,8.37744,0,0,0-1.70878-5.69912,5.66569,5.66569,0,0,0-8.52481-.00955Q201.38961,121.03316,201.38961,124.928Z" transform="translate(-178.02832 -101.9502)"/><path class="cls-2" d="M272.56148,110.86847a3.26839,3.26839,0,0,0,.64307,2.20739,2.1412,2.1412,0,0,0,3.2298-.00361,3.34586,3.34586,0,0,0,.64307-2.24713,3.17034,3.17034,0,0,0-.64669-2.15681,2.14416,2.14416,0,0,0-3.22618-.00362A3.25369,3.25369,0,0,0,272.56148,110.86847Z" transform="translate(-178.02832 -101.9502)"/><path class="cls-1" d="M235.34089,131.99226l.4964,3.03571a12.74768,12.74768,0,0,1-2.59658.30548,5.87839,5.87839,0,0,1-2.90206-.59187,3.31412,3.31412,0,0,1-1.451-1.556,12.30479,12.30479,0,0,1-.42-4.05716V117.46285h-2.52021v-2.673h2.52021v-5.02133l3.41756-2.062v7.08332h3.45575v2.673h-3.45575V129.3193a5.98921,5.98921,0,0,0,.18138,1.89016,1.43127,1.43127,0,0,0,.59187.66824,2.28621,2.28621,0,0,0,1.17419.2482A11.18071,11.18071,0,0,0,235.34089,131.99226Z" transform="translate(-178.02832 -101.9502)"/><path class="cls-1" d="M236.70759,135.06615V114.78989h3.093v3.0739a8.38812,8.38812,0,0,1,2.1861-2.84478,3.8159,3.8159,0,0,1,2.20518-.68734A6.70339,6.70339,0,0,1,247.724,115.439l-1.18374,3.18845a4.91725,4.91725,0,0,0-2.52021-.74461,3.27283,3.27283,0,0,0-2.02381.67779,3.67154,3.67154,0,0,0-1.2792,1.88061,13.3863,13.3863,0,0,0-.57277,4.00943v10.61544Z" transform="translate(-178.02832 -101.9502)"/><path class="cls-1" d="M261.0426,132.565a12.79684,12.79684,0,0,1-3.67531,2.2911,10.61985,10.61985,0,0,1-3.78986.66824,7.37166,7.37166,0,0,1-5.13589-1.63241,5.388,5.388,0,0,1-1.7947-4.17171,5.5482,5.5482,0,0,1,.67779-2.72069,5.6108,5.6108,0,0,1,1.7756-1.97607,8.349,8.349,0,0,1,2.47248-1.12646,24.55634,24.55634,0,0,1,3.05481-.5155,31.41193,31.41193,0,0,0,6.12869-1.18374q.01909-.70642.0191-.89735a3.7942,3.7942,0,0,0-.97372-2.95934,5.75147,5.75147,0,0,0-3.914-1.16464,6.06927,6.06927,0,0,0-3.57985.84962,5.19138,5.19138,0,0,0-1.70878,3.00707l-3.36028-.45822a8.32611,8.32611,0,0,1,1.50831-3.48439,6.61123,6.61123,0,0,1,3.03571-2.0429,13.54032,13.54032,0,0,1,4.6013-.716,12.17855,12.17855,0,0,1,4.21944.611,5.55962,5.55962,0,0,1,2.38657,1.53694,5.40552,5.40552,0,0,1,1.06918,2.33884,19.34952,19.34952,0,0,1,.17183,3.16936V126.57a48.63462,48.63462,0,0,0,.21957,6.06188,7.64754,7.64754,0,0,0,.86871,2.43429h-3.5894A7.28675,7.28675,0,0,1,261.0426,132.565Zm-.28639-7.67519a25.21358,25.21358,0,0,1-5.6132,1.29829,12.98327,12.98327,0,0,0-2.99752.68733,2.98822,2.98822,0,0,0-1.35557,1.11691,3.03771,3.03771,0,0,0,.56323,3.92352,4.477,4.477,0,0,0,3.04525.91644,7.08726,7.08726,0,0,0,3.53212-.86871,5.34936,5.34936,0,0,0,2.272-2.377,8.30186,8.30186,0,0,0,.55368-3.43665Z" transform="translate(-178.02832 -101.9502)"/><path class="cls-2" d="M273.23477,135.06615l-7.71338-20.27626H269.149l4.35309,12.14285q.70643,1.96653,1.29829,4.0858.45822-1.60377,1.2792-3.85669l4.50584-12.372h3.53211l-7.67519,20.27626A1.72417,1.72417,0,0,1,273.23477,135.06615Z" transform="translate(-178.02832 -101.9502)"/><path class="cls-1" d="M299.07809,128.53651l3.55121.43913a8.66438,8.66438,0,0,1-3.11209,4.83041,10.54306,10.54306,0,0,1-12.85881-1.02145q-2.60613-2.73978-2.60613-7.68474,0-5.1168,2.63477-7.94249a8.91858,8.91858,0,0,1,6.83512-2.8257,8.66849,8.66849,0,0,1,6.6442,2.76842q2.57749,2.76842,2.57749,7.78975,0,.30547-.01909.91644H287.60348a7.79175,7.79175,0,0,0,1.89016,5.1168,5.62578,5.62578,0,0,0,4.23854,1.7756,5.25871,5.25871,0,0,0,3.22664-.99281A6.59045,6.59045,0,0,0,299.07809,128.53651Zm-11.28368-5.55592h11.32186a6.86892,6.86892,0,0,0-1.29829-3.8376,5.26705,5.26705,0,0,0-4.25763-1.98562,5.45941,5.45941,0,0,0-3.98079,1.58468A6.27184,6.27184,0,0,0,287.79441,122.98059Z" transform="translate(-178.02832 -101.9502)"/><path class="cls-1" d="M304.914,135.06615V107.07652h3.43666v27.98963Z" transform="translate(-178.02832 -101.9502)"/><path class="cls-1" d="M338.86372,128.68925a18.88392,18.88392,0,0,0,2.303-5.93587l-1.5248-.927-1.78139.08409a15.74869,15.74869,0,0,1-1.42151,3.87669l-5.02134-6.396q5.28864-2.82568,5.28863-6.816a5.65043,5.65043,0,0,0-1.82333-4.21944,6.47671,6.47671,0,0,0-4.68722-1.75652,6.96771,6.96771,0,0,0-4.9736,1.86152,5.83156,5.83156,0,0,0-1.97607,4.38174,6.19438,6.19438,0,0,0,.63,2.61567,16.77491,16.77491,0,0,0,2.52021,3.53212,13.94026,13.94026,0,0,0-4.99269,3.67531,7.31839,7.31839,0,0,0-1.6706,4.68721,7.89477,7.89477,0,0,0,2.0429,5.28863,8.56533,8.56533,0,0,0,6.816,2.90207,10.03482,10.03482,0,0,0,4.334-.94508,11.7238,11.7238,0,0,0,3.70395-2.83524,19.99316,19.99316,0,0,0,4.29582,3.95215l2.3102-2.73023A19.95114,19.95114,0,0,1,338.86372,128.68925Zm-11.15958-18.367a3.2,3.2,0,0,1,2.31974-.89735,3.07026,3.07026,0,0,1,2.26246.90689,3.16534,3.16534,0,0,1,.9069,2.33884,3.88721,3.88721,0,0,1-.65869,2.19564,9.14035,9.14035,0,0,1-2.89252,2.31019l-1.5274-1.7756a7.1413,7.1413,0,0,1-1.00236-1.51786,3.23009,3.23009,0,0,1-.33412-1.36512A2.93986,2.93986,0,0,1,327.70414,110.32225Zm4.124,21.22133a6.3403,6.3403,0,0,1-3.198.96417,4.4918,4.4918,0,0,1-3.8376-1.83288,5.99323,5.99323,0,0,1-1.35557-3.53211,4.97186,4.97186,0,0,1,.97372-2.81615,12.06594,12.06594,0,0,1,3.76123-3.08344l6.30053,7.80884A7.76644,7.76644,0,0,1,331.82812,131.54358Z" transform="translate(-178.02832 -101.9502)"/><path class="cls-1" d="M362.80892,107.07652v7.71337h4.27673v5.68958h-4.27673V127.663a3.866,3.866,0,0,0,.2482,1.71514,1.42275,1.42275,0,0,0,1.33648.64756,8.5608,8.5608,0,0,0,2.40566-.49482l.57277,5.36341a25.29973,25.29973,0,0,1-5.38409.63005,9.38179,9.38179,0,0,1-4.27672-.743,4.53545,4.53545,0,0,1-2.03335-2.26088,13.27383,13.27383,0,0,1-.6587-4.91v-7.131H352.1553v-5.68958h2.86387v-3.723Z" transform="translate(-178.02832 -101.9502)"/><path class="cls-1" d="M390.1837,120.28648a11.31589,11.31589,0,0,0-6.25321-6.2532,11.671,11.671,0,0,0-8.82486,0,11.31589,11.31589,0,0,0-6.25321,6.2532,11.6711,11.6711,0,0,0,0,8.82487,11.31589,11.31589,0,0,0,6.25321,6.2532,11.671,11.671,0,0,0,8.82486,0,11.31589,11.31589,0,0,0,6.25321-6.2532,11.6711,11.6711,0,0,0,0-8.82487Zm-11.80259,13.56214a8.83294,8.83294,0,0,1-4.11466-1.57007,9.61209,9.61209,0,0,1-2.92357-3.27548,8.8117,8.8117,0,0,1-1.08281-4.30416,8.05468,8.05468,0,0,1,.2707-2.05733l5.52231,5.52231v1.13695a2.31079,2.31079,0,0,0,2.328,2.328Zm9.74526-5.76594a9.47042,9.47042,0,0,1-1.78663,2.84237,2.24058,2.24058,0,0,0-.83918-1.164,2.26874,2.26874,0,0,0-1.38058-.46019H382.983v-3.465a1.11022,1.11022,0,0,0-1.137-1.13695h-6.93v-2.328H377.19a1.1948,1.1948,0,0,0,.83917-.32484,1.05924,1.05924,0,0,0,.35191-.81211v-2.328h2.2739a2.24672,2.24672,0,0,0,1.65128-.67675,2.18434,2.18434,0,0,0,.67675-1.59714v-.48726a9.1763,9.1763,0,0,1,5.793,8.55416A8.89377,8.89377,0,0,1,388.12637,128.08268Z" transform="translate(-178.02832 -101.9502)"/><path class="cls-1" d="M414.32532,135.06615h-7.25516v-3.28391a10.69141,10.69141,0,0,1-3.27437,2.883,8.71365,8.71365,0,0,1-4.05716.85916,6.608,6.608,0,0,1-5.03088-1.9188q-1.82334-1.91879-1.82333-5.90913V114.78989h7.80884v11.15a4.09906,4.09906,0,0,0,.70642,2.71114,2.50678,2.50678,0,0,0,1.98562.80188,2.83149,2.83149,0,0,0,2.28156-1.06918,6.1709,6.1709,0,0,0,.8878-3.8376v-9.75628h7.77066Z" transform="translate(-178.02832 -101.9502)"/><path class="cls-1" d="M417.16215,114.78989h7.27425v3.3221a7.91855,7.91855,0,0,1,2.167-2.96888,4.56852,4.56852,0,0,1,2.75887-.81144,8.20593,8.20593,0,0,1,3.76123,1.06919l-2.40566,5.53683a6.109,6.109,0,0,0-2.17655-.57278,2.68507,2.68507,0,0,0-2.36747,1.26011q-1.20283,1.77559-1.20283,6.64419v6.79694h-7.80884Z" transform="translate(-178.02832 -101.9502)"/><path class="cls-1" d="M432.08454,129.43386l7.71338-.72552a3.805,3.805,0,0,0,1.33648,1.96653,3.97048,3.97048,0,0,0,2.2911.59187,3.88007,3.88007,0,0,0,2.42475-.66665,1.49093,1.49093,0,0,0,.66824-1.23942,1.41707,1.41707,0,0,0-.87826-1.2967,16.027,16.027,0,0,0-3.34119-.80029,35.06269,35.06269,0,0,1-5.62275-1.30625,5.9409,5.9409,0,0,1-2.65386-2.03176,5.27458,5.27458,0,0,1-1.07872-3.26164,5.345,5.345,0,0,1,1.16464-3.45257,6.92818,6.92818,0,0,1,3.20754-2.16382,17.02762,17.02762,0,0,1,5.47956-.716,18.96184,18.96184,0,0,1,5.35545.55369,6.98214,6.98214,0,0,1,2.883,1.71832,8.99081,8.99081,0,0,1,1.9188,3.15027l-7.36971.72552a2.51945,2.51945,0,0,0-.95463-1.43194,3.901,3.901,0,0,0-2.21473-.611,3.13825,3.13825,0,0,0-1.9188.46776,1.3918,1.3918,0,0,0-.60142,1.13283,1.207,1.207,0,0,0,.76371,1.12486,12.32277,12.32277,0,0,0,3.32209.68733,22.75174,22.75174,0,0,1,5.766,1.22033,6.35406,6.35406,0,0,1,2.89251,2.23224A5.47541,5.47541,0,0,1,453.64,128.4856,6.26317,6.26317,0,0,1,452.58037,131.9a7.17046,7.17046,0,0,1-3.3412,2.64272,16.07164,16.07164,0,0,1-6.21461.98167q-5.55593,0-7.91385-1.58468A7.12511,7.12511,0,0,1,432.08454,129.43386Z" transform="translate(-178.02832 -101.9502)"/><path class="cls-2" d="M269.149,112.86814c-.00816-.208-.03247-.40629-.03247-.62387,0-2.52558.36971-4.40124,1.4715-5.6516a5.51045,5.51045,0,0,1,8.29153.00935,8.17835,8.17835,0,0,1,1.73888,5.55017c0,.25755.00312.47153-.00782.71595h3.52333c.01154-.29693,0-.5903,0-.90374a10.18446,10.18446,0,0,0-2.73816-7.3494,8.84812,8.84812,0,0,0-6.64817-2.6648,9.17677,9.17677,0,0,0-6.20229,2.19127q-3.04556,2.63685-3.04545,8.11512c0,.21658.0344.40154.04156.61155Z" transform="translate(-178.02832 -101.9502)"/></svg>