<?xml version="1.0" encoding="utf-8"?>
<!-- Generator: Adobe Illustrator 24.2.1, SVG Export Plug-In . SVG Version: 6.00 Build 0)  -->
<svg version="1.1" id="Capa_1" xmlns="http://www.w3.org/2000/svg" xmlns:xlink="http://www.w3.org/1999/xlink" x="0px" y="0px"
	 viewBox="0 0 340.16 340.16" style="enable-background:new 0 0 340.16 340.16;" xml:space="preserve">
<style type="text/css">
	.st0{opacity:0.6;}
	.st1{fill:#BCD022;}
</style>
<g class="st0">
	<path class="st1" d="M259.95,167.45h-6.02l-12.6-24.86c-0.03-0.06-0.06-0.11-0.09-0.17c-1.85-3.21-4.36-5.92-7.3-8
		c0.09-0.33,0.15-0.67,0.15-1.03v-9.17c0-8.53-6.94-15.48-15.48-15.48h-18.78c-10.58,0-20.9,2.04-30.69,6.06l-19.17,7.87
		c-3.34,1.37-5.19,4.81-4.49,8.36c0.11,0.57,0.29,1.11,0.51,1.61c-4.16,1.37-7.88,3.21-11.07,5.52
		c-8.49,6.16-12.98,15.43-12.98,26.83v2.46h-19.83c-11.14,0-20.63,7.16-24.13,17.11c-0.3,0.49-0.48,1.06-0.52,1.66
		c-0.6,2.17-0.93,4.45-0.93,6.8v17.01c0,2.02,1.64,3.66,3.66,3.66h16.23c1.82,10.06,10.64,17.72,21.22,17.72s19.4-7.66,21.22-17.72
		h62.79c1.82,10.06,10.64,17.72,21.22,17.72s19.4-7.66,21.22-17.72h15.87c2.02,0,3.66-1.64,3.66-3.66v-38.93
		C263.62,169.09,261.98,167.45,259.95,167.45z M234.84,145.99l10.87,21.46h-20.79V138C229.06,139.34,232.61,142.16,234.84,145.99z
		 M152.76,129.45l19.16-7.87c8.9-3.66,18.29-5.51,27.9-5.51h18.78c4.49,0,8.15,3.65,8.15,8.15v5.51h-73.94c-0.05,0-0.08,0-0.09,0
		c0,0,0,0-0.01,0c-0.04-0.05-0.06-0.16-0.05-0.22C152.69,129.48,152.71,129.46,152.76,129.45z M217.6,137.13v30.32h-49.1v-30.32
		H217.6z M129.28,164.98c0-22.36,20.04-26.96,31.88-27.72v30.18h-31.88V164.98z M131.89,210.01c-0.08,7.78-6.44,14.08-14.23,14.08
		s-14.15-6.3-14.23-14.08c-0.07-7.8,6.42-14.39,14.23-14.39c7.85,0,14.23,6.38,14.24,14.22c0,0.05,0,0.1-0.01,0.16
		C131.88,210,131.89,210.01,131.89,210.01z M222.87,224.09c-7.75,0-14.07-6.23-14.23-13.94c0.02,1.89,0.04,4.15-0.01-0.14
		c-0.02-2.5-0.01-1.55,0-0.17c0.02-5.92,3.8-11.29,9.34-13.36c1.55-0.58,3.23-0.87,4.89-0.87c5.97,0,11.44,3.88,13.43,9.51
		c0.55,1.57,0.82,3.22,0.8,4.88C237.02,217.79,230.67,224.09,222.87,224.09z M256.29,206.37h-12.13
		c-1.34-8.19-7.5-15.04-15.48-17.29c-2.22-0.63-4.55-0.88-6.86-0.77c-7.78,0.37-14.89,5.11-18.32,12.08
		c-0.92,1.88-1.57,3.9-1.91,5.97h-62.65c-1.75-10.73-11.25-18.52-22.34-18.06c-10.13,0.42-18.62,8.17-20.23,18.06h-12.5v-5.66h5.29
		c2.02,0,3.66-1.64,3.66-3.66c0-2.02-1.64-3.66-3.66-3.66h-5.29v-0.36c0-0.99,0.08-1.96,0.23-2.91h5.05c2.02,0,3.66-1.64,3.66-3.66
		c0-2.02-1.64-3.66-3.66-3.66h-2.14c3.29-4.83,8.83-8.01,15.1-8.01h154.17V206.37z"/>
	<path class="st1" d="M245.52,178.36h-16.07c-2.02,0-3.66,1.64-3.66,3.66s1.64,3.66,3.66,3.66h16.07c2.03,0,3.66-1.64,3.66-3.66
		S247.55,178.36,245.52,178.36L245.52,178.36z M245.52,178.36"/>
	<path class="st1" d="M212.64,178.36h-77.45c-2.03,0-3.66,1.64-3.66,3.66s1.64,3.66,3.66,3.66h77.45c2.02,0,3.66-1.64,3.66-3.66
		S214.66,178.36,212.64,178.36L212.64,178.36z M212.64,178.36"/>
	<path class="st1" d="M124.81,206.19c-0.33,0-0.64,0.05-0.94,0.13c-1.57,0.42-2.73,1.84-2.73,3.54c0,1.93-1.57,3.5-3.5,3.5
		c-1.7,0-3.12,1.16-3.54,2.73c-0.08,0.3-0.13,0.61-0.13,0.94c0,2.02,1.64,3.66,3.66,3.66c5.97,0,10.83-4.86,10.83-10.83
		C128.48,207.83,126.84,206.19,124.81,206.19L124.81,206.19z M124.81,206.19"/>
	<path class="st1" d="M117.65,206.36c1.7,0,3.12-1.16,3.54-2.72c0.08-0.3,0.13-0.62,0.13-0.94c0-2.02-1.64-3.66-3.66-3.66
		c-5.97,0-10.83,4.86-10.83,10.83c0,2.02,1.64,3.66,3.66,3.66c0.33,0,0.64-0.05,0.94-0.13c1.57-0.42,2.72-1.84,2.72-3.54
		C114.16,207.93,115.73,206.36,117.65,206.36L117.65,206.36z M117.65,206.36"/>
	<path class="st1" d="M230.03,206.19c-0.33,0-0.64,0.05-0.94,0.13c-1.57,0.42-2.73,1.84-2.73,3.54c0,1.93-1.57,3.5-3.5,3.5
		c-1.7,0-3.12,1.16-3.54,2.73c-0.08,0.3-0.13,0.61-0.13,0.94c0,2.02,1.64,3.66,3.66,3.66c5.97,0,10.83-4.86,10.83-10.83
		C233.7,207.83,232.05,206.19,230.03,206.19L230.03,206.19z M230.03,206.19"/>
	<path class="st1" d="M222.87,206.36c1.7,0,3.12-1.16,3.54-2.72c0.08-0.3,0.13-0.62,0.13-0.94c0-2.02-1.64-3.66-3.66-3.66
		c-5.97,0-10.83,4.86-10.83,10.83c0,2.02,1.64,3.66,3.66,3.66c0.33,0,0.64-0.05,0.94-0.13c1.57-0.42,2.72-1.84,2.72-3.54
		C219.37,207.93,220.94,206.36,222.87,206.36L222.87,206.36z M222.87,206.36"/>
	<path class="st1" d="M178.39,149.19h16.08c2.02,0,3.66-1.64,3.66-3.66c0-2.02-1.64-3.66-3.66-3.66h-16.08
		c-2.02,0-3.66,1.64-3.66,3.66C174.72,147.55,176.36,149.19,178.39,149.19L178.39,149.19z M178.39,149.19"/>
</g>
</svg>
