<?xml version="1.0" encoding="utf-8"?>
<!-- Generator: Adobe Illustrator 24.2.1, SVG Export Plug-In . SVG Version: 6.00 Build 0)  -->
<svg version="1.1" id="Capa_1" xmlns="http://www.w3.org/2000/svg" xmlns:xlink="http://www.w3.org/1999/xlink" x="0px" y="0px"
	 viewBox="0 0 340.16 340.16" style="enable-background:new 0 0 340.16 340.16;" xml:space="preserve">
<style type="text/css">
	.st0{fill:#BCD022;}
	.st1{opacity:0.65;fill:#BCD022;}
	.st2{opacity:0.45;fill:#BCD022;}
	.st3{opacity:0.8;fill:#BCD022;}
	.st4{opacity:0.35;fill:#BCD022;}
	.st5{opacity:0.7;fill:#BCD022;}
	.st6{opacity:0.55;fill:#BCD022;}
	.st7{opacity:0.9;fill:#BCD022;}
	.st8{opacity:0.2;fill:#BCD022;}
	.st9{opacity:0.5;fill:#BCD022;}
	.st10{opacity:0.85;fill:#BCD022;}
	.st11{opacity:0.4;fill:#BCD022;}
	.st12{opacity:0.75;fill:#BCD022;}
	.st13{opacity:0.6;fill:#BCD022;}
	.st14{opacity:0.95;fill:#BCD022;}
</style>
<g>
	<path class="st0" d="M187.56,17.48c0,9.65-7.83,17.48-17.48,17.48c-9.65,0-17.48-7.83-17.48-17.48S160.42,0,170.08,0
		C179.73,0,187.56,7.83,187.56,17.48z"/>
	<path class="st1" d="M187.56,322.68c0,9.65-7.83,17.48-17.48,17.48c-9.65,0-17.48-7.83-17.48-17.48c0-9.65,7.83-17.48,17.48-17.48
		C179.73,305.2,187.56,313.02,187.56,322.68z"/>
	<path class="st2" d="M322.68,187.56c-9.66,0-17.48-7.83-17.48-17.48c0-9.66,7.83-17.48,17.48-17.48c9.65,0,17.48,7.83,17.48,17.48
		C340.16,179.73,332.33,187.56,322.68,187.56z"/>
	<path class="st3" d="M17.48,187.56C7.83,187.56,0,179.73,0,170.08c0-9.66,7.83-17.48,17.48-17.48s17.48,7.83,17.48,17.48
		C34.96,179.73,27.14,187.56,17.48,187.56z"/>
	<path class="st4" d="M290.34,74.54c-6.83,6.83-17.9,6.83-24.72,0c-6.83-6.83-6.83-17.9,0-24.72c6.83-6.83,17.9-6.83,24.72,0
		C297.17,56.64,297.17,67.71,290.34,74.54z"/>
	<path class="st5" d="M74.54,290.34c-6.83,6.83-17.89,6.83-24.72,0c-6.83-6.83-6.83-17.9,0-24.72c6.83-6.83,17.89-6.83,24.72,0
		C81.36,272.45,81.36,283.52,74.54,290.34z"/>
	<path class="st6" d="M265.62,290.34c-6.83-6.83-6.83-17.9,0-24.72c6.83-6.83,17.9-6.83,24.72,0c6.83,6.83,6.83,17.9,0,24.72
		C283.52,297.17,272.45,297.17,265.62,290.34z"/>
	<circle class="st7" cx="62.18" cy="62.18" r="17.48"/>
	<path class="st8" d="M244.25,35.58c-3.67,8.93-13.88,13.19-22.81,9.52c-8.93-3.67-13.19-13.88-9.52-22.81
		c3.67-8.93,13.88-13.19,22.81-9.52C243.66,16.44,247.92,26.65,244.25,35.58z"/>
	<path class="st5" d="M128.24,317.87c-3.67,8.93-13.88,13.19-22.81,9.52c-8.93-3.67-13.19-13.88-9.52-22.81
		c3.67-8.93,13.88-13.19,22.81-9.52C127.65,298.72,131.91,308.94,128.24,317.87z"/>
	<path class="st9" d="M304.58,244.25c-8.93-3.67-13.19-13.88-9.52-22.81c3.67-8.93,13.88-13.19,22.81-9.52
		c8.93,3.67,13.19,13.88,9.52,22.81C323.72,243.66,313.51,247.92,304.58,244.25z"/>
	<path class="st10" d="M22.29,128.24c-8.93-3.67-13.19-13.88-9.52-22.81c3.67-8.93,13.88-13.19,22.81-9.52
		c8.93,3.67,13.19,13.88,9.52,22.81C41.43,127.65,31.22,131.91,22.29,128.24z"/>
	<path class="st11" d="M317.63,127.42c-8.91,3.72-19.15-0.49-22.87-9.4c-3.72-8.91,0.49-19.15,9.4-22.87
		c8.91-3.72,19.15,0.49,22.87,9.4C330.75,113.47,326.54,123.7,317.63,127.42z"/>
	<path class="st12" d="M35.99,245c-8.91,3.72-19.15-0.49-22.87-9.4c-3.72-8.91,0.49-19.15,9.4-22.87c8.91-3.72,19.15,0.49,22.87,9.4
		C49.11,231.04,44.9,241.28,35.99,245z"/>
	<path class="st13" d="M212.73,317.63c-3.72-8.91,0.49-19.15,9.4-22.87c8.91-3.72,19.15,0.49,22.87,9.4
		c3.72,8.91-0.49,19.15-9.4,22.87C226.69,330.75,216.45,326.54,212.73,317.63z"/>
	<path class="st14" d="M95.16,35.99c-3.72-8.91,0.49-19.15,9.4-22.87c8.91-3.72,19.15,0.49,22.87,9.4
		c3.72,8.91-0.49,19.15-9.4,22.87C109.12,49.11,98.88,44.9,95.16,35.99z"/>
</g>
</svg>
