<svg id="Capa_1" data-name="Capa 1" xmlns="http://www.w3.org/2000/svg" viewBox="0 0 170.15 170.08"><defs><style>.cls-1{opacity:0.6;}.cls-2{fill:#bbcf21;}</style></defs><g class="cls-1"><path class="cls-2" d="M145.38,186.51h-11a2.74,2.74,0,0,0-2.74,2.74v11A2.73,2.73,0,0,0,134.4,203h11a2.73,2.73,0,0,0,2.74-2.74v-11A2.74,2.74,0,0,0,145.38,186.51Zm-2.75,11h-5.48V192h5.48Z" transform="translate(-85 -85.04)"/><path class="cls-2" d="M145.38,164.55h-11a2.74,2.74,0,0,0-2.74,2.75v11A2.74,2.74,0,0,0,134.4,181h11a2.74,2.74,0,0,0,2.74-2.75v-11A2.74,2.74,0,0,0,145.38,164.55Zm-2.75,11h-5.48V170h5.48Z" transform="translate(-85 -85.04)"/><path class="cls-2" d="M145.38,142.6h-11a2.73,2.73,0,0,0-2.74,2.74v11a2.73,2.73,0,0,0,2.74,2.74h11a2.73,2.73,0,0,0,2.74-2.74v-11A2.73,2.73,0,0,0,145.38,142.6Zm-2.75,11h-5.48v-5.48h5.48Z" transform="translate(-85 -85.04)"/><path class="cls-2" d="M175.57,186.51h-11a2.74,2.74,0,0,0-2.74,2.74v11a2.73,2.73,0,0,0,2.74,2.74h11a2.74,2.74,0,0,0,2.74-2.74v-11A2.74,2.74,0,0,0,175.57,186.51Zm-2.75,11h-5.49V192h5.49Z" transform="translate(-85 -85.04)"/><path class="cls-2" d="M175.57,164.55h-11a2.74,2.74,0,0,0-2.74,2.75v11a2.74,2.74,0,0,0,2.74,2.75h11a2.75,2.75,0,0,0,2.74-2.75v-11A2.75,2.75,0,0,0,175.57,164.55Zm-2.75,11h-5.49V170h5.49Z" transform="translate(-85 -85.04)"/><path class="cls-2" d="M175.57,142.6h-11a2.73,2.73,0,0,0-2.74,2.74v11a2.73,2.73,0,0,0,2.74,2.74h11a2.74,2.74,0,0,0,2.74-2.74v-11A2.74,2.74,0,0,0,175.57,142.6Zm-2.75,11h-5.49v-5.48h5.49Z" transform="translate(-85 -85.04)"/><path class="cls-2" d="M205.76,186.51h-11a2.75,2.75,0,0,0-2.75,2.74v11a2.74,2.74,0,0,0,2.75,2.74h11a2.74,2.74,0,0,0,2.74-2.74v-11A2.74,2.74,0,0,0,205.76,186.51Zm-2.75,11h-5.49V192H203Z" transform="translate(-85 -85.04)"/><path class="cls-2" d="M205.76,164.55h-11A2.75,2.75,0,0,0,192,167.3v11a2.75,2.75,0,0,0,2.75,2.75h11a2.75,2.75,0,0,0,2.74-2.75v-11A2.75,2.75,0,0,0,205.76,164.55Zm-2.75,11h-5.49V170H203Z" transform="translate(-85 -85.04)"/><path class="cls-2" d="M205.76,142.6h-11a2.74,2.74,0,0,0-2.75,2.74v11a2.74,2.74,0,0,0,2.75,2.74h11a2.74,2.74,0,0,0,2.74-2.74v-11A2.74,2.74,0,0,0,205.76,142.6Zm-2.75,11h-5.49v-5.48H203Z" transform="translate(-85 -85.04)"/><path class="cls-2" d="M252.41,249.63h-11v-14a16.47,16.47,0,1,0-5.49,0v14H219.48V137.11h2.74a2.75,2.75,0,1,0,0-5.49h-24.7v-8.23a2.75,2.75,0,0,0-2.74-2.75h-49.4a2.75,2.75,0,0,0-2.75,2.75v8.23H117.94a2.75,2.75,0,1,0,0,5.49h2.74V249.63H104.21v-14a16.47,16.47,0,1,0-5.49,0v14h-11a2.75,2.75,0,1,0,0,5.49H252.41a2.75,2.75,0,1,0,0-5.49ZM101.47,218.3l-1.61-1.6A2.74,2.74,0,1,0,96,220.58l2.74,2.74V230a11,11,0,1,1,5.49,0v-6.71l2.75-2.74a2.75,2.75,0,0,0,0-3.88h0a2.73,2.73,0,0,0-3.88,0Zm46.65-92.17H192v5.49H148.12Zm13.73,123.5h-8.24V233.16h8.24Zm24.7,0h-8.24V233.16h8.24Zm11,0H192V230.42a2.74,2.74,0,0,0-2.74-2.75H175.57a2.75,2.75,0,0,0-2.75,2.75v19.21h-5.49V230.42a2.74,2.74,0,0,0-2.74-2.75H150.87a2.75,2.75,0,0,0-2.75,2.75v19.21h-5.49V222.18h54.89Zm16.47,0H203V222.18h2.75a2.74,2.74,0,0,0,0-5.48H134.4a2.74,2.74,0,0,0,0,5.48h2.75v27.45h-11V137.11H214Zm24.7-31.33-1.61-1.6a2.74,2.74,0,1,0-3.88,3.88l2.74,2.74V230a11,11,0,1,1,5.49,0v-6.71l2.75-2.74a2.74,2.74,0,1,0-3.88-3.88Z" transform="translate(-85 -85.04)"/><path class="cls-2" d="M189.25,98.22a2.76,2.76,0,0,0-2-2.2l-10-2.48-4.9-7.35a2.84,2.84,0,0,0-4.56,0l-4.9,7.35L153,96a2.75,2.75,0,0,0-.86,5l6.63,4.42-2.28,9.1a2.74,2.74,0,0,0,3.89,3.11l9.75-4.87,9.75,4.88a2.81,2.81,0,0,0,1.23.29,2.78,2.78,0,0,0,1.72-.61,2.74,2.74,0,0,0,.94-2.8l-2.28-9.1,6.63-4.42a2.76,2.76,0,0,0,1.18-2.75Zm-12.46,3.67a2.74,2.74,0,0,0-1.14,3L177,110l-5.64-2.82a2.75,2.75,0,0,0-2.46,0L163.21,110l1.3-5.19a2.75,2.75,0,0,0-1.14-3l-3.07-2,5-1.24a2.73,2.73,0,0,0,1.62-1.14l3.2-4.8,3.2,4.8a2.73,2.73,0,0,0,1.62,1.14l5,1.24Zm0,0" transform="translate(-85 -85.04)"/></g></svg>